<?xml version="1.0" standalone="no"?><!DOCTYPE svg PUBLIC "-//W3C//DTD SVG 1.1//EN" "http://www.w3.org/Graphics/SVG/1.1/DTD/svg11.dtd"><svg t="1684171414866" class="icon" viewBox="0 0 1024 1024" version="1.1" xmlns="http://www.w3.org/2000/svg" p-id="6565" xmlns:xlink="http://www.w3.org/1999/xlink" width="200" height="200"><path d="M792.512 241.536a400.768 400.768 0 0 0-562.112 0 389.44 389.44 0 0 0 0 555.456 400.896 400.896 0 0 0 562.048 0.384 389.632 389.632 0 0 0 0-555.52zM511.424 117.824a401.344 401.344 0 1 1 0 802.624 403.712 403.712 0 0 1-406.208-401.152A399.296 399.296 0 0 1 224 235.264a406.656 406.656 0 0 1 287.488-117.44zM147.584 624.832zM138.752 588.288l-0.896-4.608z" p-id="6566"></path><path d="M142.848 607.552a529.728 529.728 0 0 1-3.648-16.576c1.088 5.312 2.304 10.624 3.648 16.576zM890.368 505.6v4.352zM152.512 640.384l-0.512-1.6zM474.624 634.112a545.536 545.536 0 0 1-69.312-3.648A557.376 557.376 0 0 1 388.224 492.8a535.488 535.488 0 0 1 25.6-164.544 460.8 460.8 0 0 1 81.472-150.4c-86.208 60.032-141.888 198.4-141.824 352.384a606.4 606.4 0 0 0 7.296 93.568 529.92 529.92 0 0 1-68.16-17.6 558.144 558.144 0 0 1-3.968-66.368 535.424 535.424 0 0 1 60.608-250.816A353.984 353.984 0 0 1 417.92 197.76a230.976 230.976 0 0 1 88.064-53.44h5.504a379.52 379.52 0 0 1 330.688 191.168 373.056 373.056 0 0 1 42.112 114.816 201.024 201.024 0 0 1-55.616 70.976 406.336 406.336 0 0 1-94.4 58.752 640.768 640.768 0 0 1-259.648 54.08z m-198.4 38.784a528.832 528.832 0 0 1-14.528-59.392 284.032 284.032 0 0 1-86.784-64 486.4 486.4 0 0 0 83.2 43.776 590.72 590.72 0 0 1-6.4-86.592 493.12 493.12 0 0 1 119.68-336.448 382.144 382.144 0 0 0-96.192 55.424A376.256 376.256 0 0 0 199.552 305.92a370.112 370.112 0 0 0-67.328 213.056 364.16 364.16 0 0 0 1.984 38.4 274.176 274.176 0 0 0 142.336 115.2zM149.76 632.128l-1.28-3.968zM137.088 579.008l-0.832-5.312zM889.088 485.44l0.576 6.4zM889.6 495.104l0.32 5.952zM135.488 568.384l-0.384-2.624zM888.192 476.16c0 2.304 0.512 4.992 0.768 7.296l-0.768-7.296zM569.6 889.6l-1.728 0.32z" p-id="6567"></path><path d="M890.624 524.8v0.32c-90.112 108.8-299.84 156.992-477.568 132.416a488.64 488.64 0 0 0 22.4 58.432 580.416 580.416 0 0 0 421.12-95.168c-77.568 97.92-243.2 142.016-400.512 134.72a269.44 269.44 0 0 0 148.096 126.784A375.616 375.616 0 0 0 890.624 524.8zM578.688 887.936h-1.664zM295.552 628.48a535.232 535.232 0 0 0 12.8 57.088 691.2 691.2 0 0 0 72.576 20.864 516.352 516.352 0 0 1-15.488-57.6 465.984 465.984 0 0 1-69.888-20.352zM589.312 885.952l-1.664 0.32zM559.936 890.624h-0.896zM597.312 883.968l-0.32 0.32zM155.328 648.384v-1.024zM398.336 750.272a608 608 0 0 1-72.512-13.632 461.952 461.952 0 0 0 70.4 119.808 332.8 332.8 0 0 1-98.56-127.424 381.76 381.76 0 0 1-139.392-72.704 379.008 379.008 0 0 0 352.896 237.248c7.872 0 15.68 0 23.424-0.64a278.08 278.08 0 0 1-136.256-142.656zM836.736 218.304l4.48-4.288-15.616-16.256-5.632 5.632-9.152-9.28 29.632-28.544 34.496 35.52-28.416 27.2-9.728-9.984z m20.48-19.52l-15.68-16.256-8.192 7.936 15.68 16.256 8.192-7.936z m34.688-6.016l-43.968-44.8-7.936 7.616 43.968 45.184 7.936-7.68z m8.768-1.664l-42.88 40.832c-2.56 3.648-6.4 2.304-12.16-3.968a51.2 51.2 0 0 1-7.168 9.92c11.648 13.952 20.672 15.936 27.2 6.4l53.888-51.2-54.016-55.04-8.832 8.256 43.968 45.12z m-206.784-79.936h1.024c9.28 1.984 22.656-6.4 40.064-24.896a129.536 129.536 0 0 1 12.032 10.624l-0.384 1.664c-11.264 6.4-22.144 13.248-32.704 20.544a88.384 88.384 0 0 0 15.424 6.4c4.288 1.984 7.296 3.328 8.896 4.288a78.4 78.4 0 0 0-3.52-15.552l14.016-1.024a245.696 245.696 0 0 1 5.568 39.168l-16.576-1.024a24.064 24.064 0 0 0 0-10.24 243.712 243.712 0 0 0-42.688-15.616l-3.2-1.344a47.872 47.872 0 0 1 1.472-11.584l0.32-1.664z m-0.512-32v0.32a43.584 43.584 0 0 1 7.104 13.952 502.592 502.592 0 0 0 47.936-26.24l0.576-1.664c-2.368-2.304-6.4-5.952-12.224-11.264a77.184 77.184 0 0 1-43.456 24.896z m73.408 47.424a92.672 92.672 0 0 1-8.384-57.024l0.768-6.208a50.304 50.304 0 0 1 14.016 3.328 68.928 68.928 0 0 0 9.984 52.096 100.352 100.352 0 0 0-16.384 7.616zM591.744 63.04a36.416 36.416 0 0 0 6.4-8.96 111.808 111.808 0 0 0-5.76-16.896l-5.44 10.624 4.8 15.232zM561.536 64A86.976 86.976 0 0 0 575.36 47.104a103.616 103.616 0 0 0-7.488-18.88l-6.4 35.84z m-16.896 24.192L560.448 0l80.576 13.952L627.2 90.944c0.512 9.28-7.808 12.8-25.088 8.96a19.2 19.2 0 0 0-1.344-13.312c10.432 2.304 15.04 1.664 13.696-1.984l11.072-62.08L571.072 12.8l-2.24 12.8A80.96 80.96 0 0 1 576 21.568c0.704 1.344 1.728 3.648 3.328 7.296l2.432 5.312c1.92-3.968 3.712-8.576 5.632-14.272l11.456 5.312L595.2 32.512l5.312-2.304c1.024 1.984 2.752 5.952 5.056 11.584a124.16 124.16 0 0 0 6.784-16.896l11.072 5.312a209.6 209.6 0 0 1-13.312 25.6 168.512 168.512 0 0 1 5.184 20.288 46.72 46.72 0 0 0-11.904 3.648c0-1.344 0-3.328-0.64-6.4s-0.64-4.288-0.96-5.952l-3.648 3.968a111.68 111.68 0 0 1-11.328 11.968 30.08 30.08 0 0 0-9.152-6.4c3.264-3.008 6.912-5.952 10.88-9.984a20.992 20.992 0 0 0-7.424 2.368 92.544 92.544 0 0 1-2.048-9.6 80.192 80.192 0 0 1-14.912 15.616l-3.456-6.4-3.84 21.568-12.224-2.24zM441.6 58.432l14.912-2.688-1.728-9.6-14.848 2.624 1.664 9.664zM410.752 54.08L412.416 64l15.808-3.264L426.496 51.2l-15.744 2.88z m25.6-25.6L438.016 38.4l14.912-2.56L451.2 25.6l-14.976 2.944z m-11.712 12.352L422.848 30.848 407.04 33.536l1.792 9.92 15.808-2.624zM392.192 24.896l28.8-4.992-2.496-13.952 4.48-0.64c6.4-1.344 10.048-1.344 9.92-0.64v1.28l0.512 5.312 1.216 6.4L463.168 12.8l9.664 54.464-13.696 2.304-0.64-3.328-15.04 2.624 1.344 6.976c0 6.016 3.328 7.68 10.176 5.632l14.208-2.304c4.672 0 6.4-3.328 5.76-10.304a92.48 92.48 0 0 0 13.184 2.048c0.512 10.944-2.56 16.576-9.536 16.896l-31.168 5.312a10.816 10.816 0 0 1-14.4-5.312L432.128 83.2l-2.048-11.84-15.808 2.624 1.536 8.32-12.8 2.304-10.816-59.712zM250.88 117.12q20.544-16.896 22.464-25.6l-11.84 5.632-4.48-8.96 47.296-22.912 4.48 8.96-15.936 8c-1.856 3.264-3.328 6.4-4.48 8.256a59.264 59.264 0 0 1 10.432 3.648 65.152 65.152 0 0 0 10.88-19.2 106.304 106.304 0 0 1 14.912 1.664l0.512 2.624-2.752 3.968a54.72 54.72 0 0 0-7.104 8.96 44.8 44.8 0 0 0 33.408 10.944 32.384 32.384 0 0 0-4.8 15.616 45.632 45.632 0 0 1-34.56-18.24l-0.96 1.664a113.024 113.024 0 0 1 9.024 16.576 16.832 16.832 0 0 1 1.536 12.288c-1.088 3.968-5.504 7.616-12.8 11.584a30.144 30.144 0 0 0-8.448-8.64l5.184-2.304c4.288-1.984 5.376-4.608 3.264-8.256a31.424 31.424 0 0 0-3.456-6.016 159.424 159.424 0 0 1-25.6 36.16 21.056 21.056 0 0 0-12.288-5.312 119.296 119.296 0 0 0 30.4-41.472l-2.112-1.664a183.104 183.104 0 0 1-22.912 31.552 59.584 59.584 0 0 0-10.688-5.952 94.976 94.976 0 0 0 24.256-29.568l-1.664-0.64a228.096 228.096 0 0 1-20.48 22.528l-1.344-0.64a51.904 51.904 0 0 0-9.28-4.992z m17.024-51.776l-32.512 15.616 9.344 19.2 11.904-5.696-4.736-9.28 54.016-26.432 4.672 9.6 12.8-6.4-9.344-19.2-32 15.616a40.96 40.96 0 0 0-4.672-8.256L262.4 58.048l1.28 1.664 4.16 5.632zM175.424 187.456l1.28-6.976-5.76 5.696 9.792 9.28 5.76-6.016a73.024 73.024 0 0 0-11.072-1.984z m-32.768 12.8l11.776-11.968-6.4-6.4-12.8 13.312-7.36-6.976 35.968-36.864 7.424 6.976-14.144 14.464 6.4 6.4 12.8-13.312 7.36 6.976-3.392 3.648c4.48 1.024 8.064 1.664 10.816 2.368l-1.28 7.296 5.376-5.696 7.68 7.68-37.12 37.824-7.744-7.296 13.632-13.888-9.856-9.28-11.648 11.904-7.488-6.912z m19.2-55.808l47.552 45.504-41.152 42.112-47.552-45.44 41.152-42.176z m8.576 107.52l-66.88-64 59.648-61.056 66.304 63.36-9.472 9.28-3.264-2.432-41.152 42.112 3.904 3.648zM956.096 273.728l2.24-0.96 14.336 30.208-2.24 0.96-0.512-0.96c-2.56-4.672-4.8-6.4-6.848-4.992a66.624 66.624 0 0 0-10.496 10.304l9.792 20.864a41.728 41.728 0 0 0 14.336-1.344c2.24-0.96 2.496-3.968 0.832-8.576l-0.384-1.024 2.176-0.96 9.024 19.2-2.24 1.024c-1.408-3.968-6.4-5.312-15.424-3.968l-62.144 2.944-1.216-2.304 40.192-44.16c8.384-8.256 11.264-13.888 8.576-16.256z m2.048 56.128l-8.64-18.304-18.88 20.288 27.52-1.984z m53.312 82.56l-2.304 0.384c-1.792-6.016-5.504-8.32-10.944-6.4l-47.616 13.312c-4.032 5.952-5.632 9.6-4.992 10.944l-2.304 0.64-6.4-21.248 32.768-46.784-30.336 8.64a8.704 8.704 0 0 0-7.168 12.096l-2.368 0.64-6.4-21.248 2.368-0.64c2.56 5.632 6.4 7.296 10.496 5.312l58.624-16.576 0.768 2.624-41.024 59.712 40.192-11.584c7.04-1.024 9.536-4.992 7.424-11.968l2.432-0.64 6.4 22.528z m-1.664 8.64c1.664 6.976 0 10.944-5.696 11.328l-49.472 9.6c-4.736 1.344-7.68-1.344-9.024-7.616l-0.512-0.704-2.496 0.384 7.04 35.84 2.432-0.704c-0.96-6.4 0.96-9.92 5.824-10.944l49.408-9.28c4.8-1.344 7.936 1.344 9.472 7.936h2.432l-7.04-35.84h-2.368z m7.68 45.12h2.496l1.792 35.2h-2.368c-0.384-6.4-3.072-9.6-8.256-8.96l-23.808 1.344 1.408 24.512 23.68-1.28c5.184 0.32 7.616-3.008 7.232-9.664h2.432l1.92 35.52h-2.496c-0.32-6.4-3.072-8.96-8.256-8.64l-50.304 2.688c-4.864 0-7.296 3.264-7.296 9.28l-2.368 0.32-1.92-35.2h2.496c0.384 6.4 3.072 9.664 8.256 8.96l21.632-0.96-1.28-24.896-21.632 1.344c-5.248 0-7.68 2.944-7.296 9.6h-2.496l-1.792-35.2h2.368c0.576 6.4 3.328 8.96 8.256 8.64l50.304-2.624c4.864 0 7.36-3.008 7.296-9.344zM1004.8 553.792l2.816-2.944a37.952 37.952 0 0 1 11.52 30.528 34.368 34.368 0 0 1-39.68 32.832 35.52 35.52 0 0 1-33.92-36.864v-3.328a69.12 69.12 0 0 1 5.696-14.912l1.792-4.608c0.448-1.664-1.024-3.328-4.48-4.672v-3.008l24.448 2.688v2.304c-14.208 4.992-22.144 12.288-23.68 21.888-1.088 12.8 9.344 20.288 31.36 22.592a40.128 40.128 0 0 0 23.232-2.304 17.024 17.024 0 0 0 11.072-14.656 31.168 31.168 0 0 0-10.432-25.6z m-83.2 134.08l-2.432-1.024 17.408-55.744 19.968 6.016-0.704 2.304c-11.904-2.304-19.648 3.328-23.168 16.576-1.984 5.312-1.088 8.32 2.432 8.96l23.104 6.976c3.712-9.28 0-15.616-10.24-19.904l0.832-2.688 33.664 10.304-0.768 2.688c-10.688-2.368-17.344 0.96-19.968 10.56l23.104 6.976c5.056 2.368 8.576-0.64 10.816-8.576l2.368 0.64-11.072 35.52-2.304-0.704c1.984-6.4 0.448-9.92-4.736-10.944l-48.128-14.592c-4.928-1.664-8.256 0-10.176 6.4z m-20.736 28.224a35.264 35.264 0 0 0 16.32 49.408 37.12 37.12 0 0 0 48.704-15.616 36.16 36.16 0 0 0-15.04-49.408l-1.472-1.024a36.736 36.736 0 0 0-48.512 16.64z m3.264 1.6q-7.616 16.384 21.44 32c19.968 9.984 32.832 9.28 38.4-1.664s-1.728-20.864-21.568-31.168-32.448-8.96-38.4 0.96z m-16.768 146.304l-1.984-1.344c3.968-5.312 3.52-9.28-1.216-12.8l-39.552-29.504c-7.168 0.64-11.136 1.28-11.712 2.624l-1.984-1.664 13.312-17.216 57.6-2.368-25.152-18.88a8.768 8.768 0 0 0-12.8-0.64l-1.92 2.304-2.048-1.664 13.568-17.6 2.048 1.344c-3.2 5.632-2.56 9.28 1.856 11.584l48.768 36.544-1.728 1.984-72.896 3.648 33.344 24.896a8.64 8.64 0 0 0 11.84 1.6l2.56-3.264 1.984 1.664-14.208 18.56z m-83.2-22.208a35.584 35.584 0 0 0-3.712 52.096l2.752 2.944a35.392 35.392 0 0 0 49.28 0 34.176 34.176 0 0 0 3.968-51.2l-1.024-1.344a36.672 36.672 0 0 0-51.2-2.624z m2.432 2.624c-8.832 8.32-6.4 20.928 7.808 37.504s26.816 20.928 36.288 12.8 6.4-19.904-8.128-36.864c-14.72-15.872-26.688-20.224-35.968-12.8z m6.4 78.656l1.6 1.984-29.44 21.888-1.6-1.664c5.376-4.288 6.4-8.32 3.2-12.288l-30.272-39.488c-2.944-3.968-7.168-3.968-12.8 0l-1.472-1.984 29.44-21.888 1.472 1.984-0.448 0.64c-5.248 4.032-6.4 7.68-3.072 11.328l30.272 39.808c2.944 4.608 7.232 4.608 12.8 0z m-49.92 32.832c-6.848 3.968-11.328 2.688-13.44-4.288l-24.192-48.768 2.176-1.344a17.536 17.536 0 0 1 23.552 7.936l2.944-1.344-9.536-18.24-56.32 27.2 8.768 18.624 2.56-1.344-0.896-2.304a17.664 17.664 0 0 1 11.648-22.272l24.192 49.152c3.84 5.952 2.24 10.624-4.928 13.248l1.152 2.304 33.472-16.256-1.088-2.304z m-55.168 26.88l0.832 2.304-32 10.944-0.768-2.304 1.088-0.32c5.056-1.984 6.976-3.968 5.696-6.4a64.448 64.448 0 0 0-9.216-11.264l-22.016 7.616a39.36 39.36 0 0 0 0 13.952c0.832 2.304 3.712 3.008 8.896 1.664h0.768l0.768 2.304-20.16 6.4-1.792-1.92c3.968-1.024 5.888-6.016 5.696-14.592l3.264-61.44 2.752-0.96 40.064 44.16c7.488 9.28 12.8 12.8 15.68 10.24v-0.32z m-56.704-3.648l19.2-6.4-18.432-20.544-0.832 27.2z m-17.088 27.2l0.512 2.304-20.992 4.032-27.52-27.584-3.072 0.512 3.968 19.584c0 6.912 3.776 9.6 10.688 7.936l0.448 2.304-34.496 6.4-0.448-1.792c6.4-0.704 8.832-4.352 6.976-11.328l-8.896-44.8c-0.96-6.4-4.544-9.344-10.624-8L550.4 953.6l32.96-6.4c19.2-3.328 29.888 0.704 32.448 12.288a18.24 18.24 0 0 1-12.8 20.608l26.624 24.832 4.352 1.344z m-56.64-50.112l5.184 26.24c13.568-1.984 18.88-8.32 15.872-19.2-1.984-9.6-7.04-13.952-15.36-12.288-4.864 0.704-6.784 2.368-5.696 5.312z m-66.112-4.992a35.968 35.968 0 0 0-35.264 38.848 34.432 34.432 0 0 0 38.912 33.92H518.4a34.944 34.944 0 0 0 31.424-37.824v-1.664a36.224 36.224 0 0 0-38.4-33.216z m0 3.648c11.776 0 18.432 10.624 20.16 32s-4.736 33.536-16.64 34.176-19.2-9.92-20.608-32 4.8-32.832 17.088-34.176z m-71.424 0l-3.456 27.2q18.048 4.544 19.2-12.8c1.28-10.624-2.24-16.576-10.624-17.216-3.264-0.384-5.056 0.64-5.312 2.944z m-33.408 59.072v-2.304l5.888-0.32 0.384-0.384c2.048-0.96 3.392-3.648 3.904-7.936l5.632-45.44a7.68 7.68 0 0 0-4.48-9.984l-3.328-0.64v-2.304l33.792 3.968c17.792 2.944 26.112 10.304 24.896 22.208a17.92 17.92 0 0 1-11.776 14.592 42.88 42.88 0 0 1-25.984 0l-2.432 19.2c-1.856 6.4 0.768 10.304 8.192 10.944l-0.384 2.368-34.944-4.352z m-6.4-4.992l-3.328-3.2-12.288-34.176a18.112 18.112 0 0 0 20.736-12.8c3.072-11.328-4.672-19.904-23.232-25.6l-32-8.96-0.64 2.368c6.08 1.28 8.064 5.312 5.952 11.584l-12.8 44.16c-1.472 6.4-5.248 8.96-11.392 6.4l-0.704 2.688 33.92 9.28 0.704-2.304c-7.04-1.664-8.96-5.632-6.016-11.648l5.632-19.2 2.752 0.64 11.904 37.184 20.416 5.952 0.704-2.688z m-27.392-69.632c0.384-3.328 2.816-4.032 7.488-2.368 8 2.368 10.752 8.32 7.936 17.92q-3.456 16.384-22.912 9.984l7.488-25.6z m-53.248-32a35.456 35.456 0 0 1 16.704 47.744l-0.704 1.344a35.072 35.072 0 0 1-46.4 17.28l-3.072-1.664a34.112 34.112 0 0 1-16.64-48.768 36.096 36.096 0 0 1 50.112-15.936z m-1.6 3.008c-11.264-4.992-21.952 2.304-32 21.184-10.176 19.904-9.664 32.576 1.536 38.4s21.184-1.664 31.616-21.568c9.408-19.2 9.088-32-1.088-37.824z m-69.12 24.192a32.384 32.384 0 0 1-27.52-4.672 16.64 16.64 0 0 1-7.04-16.576 37.824 37.824 0 0 1 10.176-20.864c13.312-17.6 25.152-22.592 35.584-15.296a30.912 30.912 0 0 1 6.784 31.552l1.984 1.664 14.912-19.584-2.368-1.664c-3.008 2.304-5.248 2.624-6.4 1.28l-3.264-3.968a55.68 55.68 0 0 0-9.92-12.8l-2.496-1.664a35.904 35.904 0 0 0-49.6 9.664 33.536 33.536 0 0 0 8.128 50.432 37.504 37.504 0 0 0 32.384 5.952l-1.344-3.584z m-135.68-97.856l1.792-1.664a7.232 7.232 0 0 0 11.008 1.28l37.312-35.456q4.8-4.48-0.96-10.944l1.792-1.664 22.144 22.528a34.048 34.048 0 0 1 2.304 51.2 35.584 35.584 0 0 1-52.672-1.984l-22.72-23.552z m62.4-24.576l-37.696 36.16a4.8 4.8 0 0 0-1.92 6.4l1.728 1.664q13.888 15.36 37.504-6.976c14.208-14.592 16.96-26.56 8.448-36.16-3.392-3.648-6.4-4.032-8.128-1.344z m-68.224 12.288c-4.416-6.016-4.288-9.984 0.512-12.8l41.344-28.544c3.84-3.008 7.616-1.984 11.392 3.328h0.768l2.048-1.344-21.12-29.888-2.048 1.344c3.52 5.632 3.328 9.664-0.64 12.8l-41.344 28.224c-3.84 3.328-7.872 1.984-11.968-3.328l-2.048 1.344 21.184 29.824 1.984-1.28z m-28.032-34.496v-4.672l18.112-31.552a18.496 18.496 0 0 0 23.232 7.296c10.688-5.312 12.096-16.576 4.16-34.176l-14.144-30.144-1.792 0.96c2.88 5.312 1.216 9.344-5.056 11.968l-41.984 19.2c-6.4 3.648-10.496 2.304-12.8-4.032l-2.24 1.024 14.912 31.552 2.24-1.024c-3.264-6.4-1.536-10.304 5.184-12.288l18.496-8.256 1.216 2.624-20.48 32.832 9.024 19.2 2.176-0.96z m35.584-66.688c2.496-1.664 4.608-0.384 6.4 3.968 3.584 7.616 0.768 13.568-8.32 17.92-10.048 5.312-17.6 1.984-22.656-10.624l24.576-11.264z m-45.696-15.616l-2.432 0.96c-1.792-6.4-5.76-8.256-11.648-5.632l-12.8 4.032a66.176 66.176 0 0 1-14.144-24.576 34.176 34.176 0 0 1 22.464-46.784 36.096 36.096 0 0 1 46.528 20.864l0.768 2.368a55.744 55.744 0 0 1 1.024 15.936l0.384 4.928c0.32 1.984 2.368 3.008 6.08 2.688l0.832 3.008-23.36 7.296-0.768-2.368a30.336 30.336 0 0 0 12.8-29.504c-4.032-12.288-16.704-14.912-37.952-7.616s-29.76 16.576-25.6 29.504c2.048 6.976 5.504 9.6 10.304 7.616l10.432-3.328c5.184-0.96 6.4-5.312 3.776-12.224l2.304-1.024 11.2 33.856zM70.4 544h2.432l6.4 59.392-20.8 2.304-0.384-2.816c12.224-2.304 17.024-10.944 14.656-25.152 0-5.696-2.24-8-5.632-7.36l-24.064 2.688c0 10.624 5.76 15.616 17.28 15.232v2.368L25.6 594.304v-2.368a15.04 15.04 0 0 0 14.528-15.552l-0.832-3.008L14.016 576c-4.352 0-6.016 2.944-4.8 9.28a26.304 26.304 0 0 0 21.248 25.216l0.32 2.624-22.08-1.6-6.4-60.352h2.496c0.64 6.4 3.584 9.28 8.704 8.256l50.112-5.312c5.184 0 7.424-3.648 6.4-9.92zM2.496 527.936C2.304 520.32 5.76 516.992 12.8 518.4l55.232 3.008v2.688a17.472 17.472 0 0 1-18.624 16.256v3.264L70.4 544l3.328-62.08-20.864-1.28v2.624h2.368a17.984 17.984 0 0 1 14.272 20.928l-55.872-2.496C6.4 502.4 3.392 498.752 4.416 491.392H1.984L0 527.936z m1.728-60.416H1.792l6.4-32.832h2.368v1.344c-0.896 5.312 0 7.936 2.56 7.616A53.824 53.824 0 0 0 27.648 441.6L32 419.072a44.8 44.8 0 0 0-12.416-7.616c-2.368 0-4.352 1.984-5.76 6.976v0.64H11.392l3.968-20.864h2.432c-1.024 3.968 2.304 7.936 10.112 12.288l52.16 33.472-0.448 2.688-58.752 12.288c-11.776 1.984-17.344 4.608-16.64 8.256z m32-46.464L32 440.64 59.328 435.2l-23.424-14.144zM24.064 377.6c2.048-7.296 6.4-9.6 12.8-6.4l52.288 17.92-0.64 2.304a17.664 17.664 0 0 1-22.528 10.624l-0.96 2.944 19.84 6.4 20.48-58.752-19.648-6.912-0.832 2.624 2.24 1.024a17.536 17.536 0 0 1 7.68 23.872l-52.288-17.92c-6.976-1.664-8.96-5.632-5.952-12.8L33.92 342.08l-12.224 34.88 2.368 0.64z m64.448-40.448l1.28-2.688a23.552 23.552 0 0 0 26.496-9.28c2.816-6.976 1.6-11.584-3.648-14.592-3.968-3.008-9.408-1.664-16.32 3.968l-13.12 9.984a22.784 22.784 0 0 1-22.4 1.664 22.784 22.784 0 0 1-7.232-32.576 59.584 59.584 0 0 1 7.744-11.264L64 279.36 63.104 275.2 64 272.448l22.208 11.264-1.28 2.624c-14.784-3.648-24.64-0.64-29.632 9.28a11.392 11.392 0 0 0 3.2 15.936l1.088 0.704q7.104 3.968 16.704-4.992l6.4-4.288c10.944-8.64 20.16-10.624 27.84-6.016a20.416 20.416 0 0 1 9.728 27.2l-1.664 2.688a30.528 30.528 0 0 1-7.424 8.96l-3.328 3.968 1.792 4.288-0.832 3.008z" p-id="6568"></path></svg>
