<?xml version="1.0" encoding="UTF-8"?>
<svg id="a" data-name="图层 1" xmlns="http://www.w3.org/2000/svg" xmlns:xlink="http://www.w3.org/1999/xlink" viewBox="0 0 546.13 818.68">
  <defs>
    <clipPath id="b">
      <rect x="48.91" y="55.12" width="448.32" height="448.8" fill="none"/>
    </clipPath>
  </defs>
  <g>
    <path d="M273.08,0C122.51,0,0,124.73,0,278.04v2c0,74.27,28.4,144.09,79.98,196.62l23.49,23.92c80.57,82.03,132.32,185.99,149.65,300.66,1.53,10.1,9.92,17.44,19.95,17.44s18.43-7.34,19.95-17.44c17.34-114.67,69.09-218.64,149.65-300.66l23.48-23.92c51.58-52.52,79.98-122.35,79.98-196.62v-2C546.16,124.73,423.65,0,273.08,0" fill="#009994"/>
    <path d="M48.91,278.12c0,80.43,42.73,154.76,112.08,194.97,69.36,40.22,154.8,40.22,224.16,0,69.35-40.21,112.08-114.54,112.08-194.97,0-124.34-100.36-225.14-224.16-225.14S48.91,153.78,48.91,278.12h0Zm0,0" fill="#009994"/>
  </g>
  <g>
    <g clip-path="url(#b)">
      <path d="M449.21,204.73l-2.8-5.6,19.6-16.8c1.87-1.87,2.8-2.8,2.8-4.67l3.73-1.87,4.67,13.07-3.73,1.86v-.93c0-.93-.93-.93-.93-1.87h-1.87s0,.93-.93,.93l-3.73,2.8,2.8,8.4h4.67l.93-.93c.93,0,1.87,0,1.87-.93s0-.93-.93-2.8l3.73-.93,4.67,11.2-3.73,.93c-.93-1.87-2.8-2.8-6.53-1.87h-24.27Zm5.6-4.67h10.27l-2.8-5.6-7.47,5.6Zm9.33,40.13v-2.8c.93-.93,2.8-.93,4.67-1.87l12.13-3.73c2.8,0,3.73-.93,4.67,0,.93,0,1.87,.93,1.87,1.87l3.73-.93-2.8-10.27-3.73,.93v2.8c-.93,.93-1.86,1.87-4.67,1.87l-14.93,3.73,20.53-18.67-.93-5.6-21.46,5.6c-2.8,.93-4.67,.93-5.6,.93,0,0-.93-.93-.93-1.87l-4.67,.93,3.73,10.27,2.8-.93c0-1.87,0-2.8,.93-2.8,0-.93,1.87-1.87,4.67-1.87l8.4-2.8-15.87,14.93,3.73,11.2,3.73-.93Zm-387.31,52.26c.93,.93,0,1.87,0,2.8-.93,0-2.8,.93-4.67,.93l-13.07,.93c-1.87,.93-3.73,.93-4.67,0-.93,0-.93-.93-.93-1.87h-3.73l2.8,24.27,11.2,2.8,.93-2.8c-2.8-.93-4.67-2.8-6.53-4.67-1.87-1.87-2.8-3.73-3.73-5.6,0-1.87,0-2.8,.93-2.8,0-.93,1.87-.93,2.8-.93l7.47-.93,.93,.93c0,.93-.93,1.87-.93,2.8-.93,.93-2.8,1.87-4.67,1.87l.93,2.8,14-1.87v-2.8h-4.67c0-.93-.93-1.87-.93-2.8v-1.87h4.67c.93-.93,2.8-.93,2.8,0,.93,0,.93,.93,.93,2.8,.93,1.87,0,3.73-.93,5.6-.93,1.87-2.8,3.73-4.67,5.6l1.86,2.8,9.33-5.6-2.8-23.33-4.67,.93Zm-4.67-32.66l-.93,2.8c1.87,.93,3.73,1.87,4.67,3.73,.93,.93,.93,2.8,.93,4.67l-17.73-.93c-2.8,0-3.73,0-4.67-.93-.93,0-.93-.93-.93-1.87l-3.73-.93-.93,15.86h3.73c0-1.86,.93-2.8,.93-2.8,.93,0,2.8-.93,5.6-.93h17.73v.93c0,1.86-.93,2.8-1.87,4.67-.93,.93-2.8,1.87-5.6,2.8l.93,2.8,10.27-2.8,.93-23.33-9.33-3.73Zm12.13-12.13l-.93,6.53-25.2,3.73c-2.8,0-4.67,.93-4.67,2.8l-4.67-.93,2.8-14,3.73,.93v2.8c.93,0,.93,.93,1.87,.93h.93l4.67-.93,1.86-8.4-3.73-1.86h-.93c-.93-.93-1.87,0-1.87,0-.93,0-.93,.93-.93,1.86h-4.67l2.8-12.13,3.73,.93c0,1.87,.93,3.73,3.73,5.6h.93l20.53,12.13Zm-7.47,.93l-8.4-5.6-.93,6.53,9.33-.93Zm8.4-38.26l-1.87,1.86c1.87,1.87,2.8,3.73,3.73,5.6,0,.93,0,2.8-.93,4.67l-16.8-5.6c-1.87-.93-3.73-.93-3.73-1.87-.93-.93-.93-1.87-.93-2.8l-3.73-1.86-4.67,14,3.73,.93,1.87-1.87c.93,0,2.8,0,5.6,.93l16.8,5.6c-.93,1.87-1.87,3.73-3.73,4.67-.93,0-2.8,.93-5.6,.93v3.73h10.27l8.4-22.4-8.4-6.53Zm9.33-4.67l5.6-5.6c.93-2.8,.93-4.67,0-7.47-.93-2.8-2.8-4.67-4.67-5.6-1.86-.93-2.8-.93-4.67-.93h-3.73c0,.93-.93,.93-1.87,1.87-.93,.93-1.87,2.8-3.73,3.73,0,.93-.93,.93-.93,.93-2.8,3.73-4.67,4.67-6.53,3.73-.93,0-1.86-.93-1.86-1.87-.93-1.87,0-2.8,0-4.67,.93-1.87,2.8-2.8,4.67-3.73,2.8-.93,5.6-1.87,8.4-1.87v-2.8l-12.13-2.8-.93,2.8,1.86,.93c-1.86,.93-2.8,1.87-3.73,2.8-.93,.93-1.87,1.87-1.87,3.73-1.87,2.8-1.87,5.6-.93,8.4,.93,2.8,2.8,4.67,5.6,6.53,2.8,.93,4.67,.93,6.53,.93,1.87-.93,3.73-2.8,6.53-5.6,0,0,.93,0,.93-.93,3.73-3.73,5.6-5.6,7.47-4.67,.93,0,.93,.93,.93,1.87,.93,.93,0,1.87,0,3.73-.93,.93-1.86,2.8-3.73,3.73-1.87,.93-3.73,.93-6.53,.93v2.8l9.33,2.8,1.87-2.8-1.87-.93ZM413.75,125.4l2.8,3.73,9.33,9.33,3.73,3.73-3.73,2.8-8.4,8.4-3.73-3.73-9.34-10.27-2.8-2.8,2.8-2.8,6.53-5.6,2.8-2.8Zm6.53-10.27l4.67-3.73,3.73,4.67,17.73,18.66,3.73,4.67-3.73,3.73-22.4,20.53-1.86,1.87h-2.8c-.93-.93-2.8-1.87-5.6-4.67,0-.93,.93-.93,.93-1.87,.93,0,.93-.93,1.87-1.87v-1.87l2.8,2.8q.93,.93,1.87,.93s.93,0,.93-.93l20.53-18.66-17.73-18.67-4.67-5.6Zm16.8,24.27l-3.73,3.73-3.73-3.73-13.07-14-3.73-4.67,3.73-3.73,3.73,3.73,13.07,14,3.73,4.67Zm-19.6,7.47l4.67-4.67-8.4-8.4-4.67,4.67,8.4,8.4Zm-37.33-65.33c-.93,2.8-.93,3.73-1.87,5.6v3.73c-.93,1.87-.93,3.73,0,5.6,0,1.87,.93,3.73,1.87,6.53,.93,1.87,1.87,4.67,3.73,6.53,1.87-1.87,3.73-2.8,3.73-2.8q.93,0,1.87-.93l-2.8-2.8s-.93-.93-.93-1.87c-.93-.93-.93-1.86-1.87-3.73-.93-1.87-.93-3.73-.93-5.6,.93-1.87,.93-2.8,.93-3.73,.93-.93,.93-1.87,.93-1.87,0-.93,.93-.93,.93-1.87l-5.6-2.8Zm-28.93,20.53h-3.73v1.87c0,.93,0,1.87-.93,4.67,1.87,0,2.8,.93,4.67,.93,.93,.93,3.73,1.86,8.4,3.73,5.6,1.87,9.33,3.73,11.2,4.67,0,1.87,.93,2.8,0,3.73v1.87l1.87-.93s1.86,0,4.67-.93c0-3.73-.93-9.33-1.87-15.86h-5.6v2.8c.93,.93,.93,1.86,.93,4.67-4.67-2.8-10.27-4.67-14.93-7.47,1.87-.93,3.73-1.87,5.6-1.87l9.33-4.67s.93,0,1.87-.93c-1.87-1.87-2.8-3.73-3.73-5.6l-.93,.93s-.93,.93-2.8,1.87l-5.6,2.8c-.93,.93-2.8,1.87-4.67,1.87-.93,.93-2.8,.93-3.73,1.86h0Zm.93-10.27c2.8,0,5.6-.93,8.4-1.87,2.8-.93,5.6-1.87,7.47-2.8,1.87-1.87,4.67-2.8,7.47-4.67-1.86-.93-2.8-2.8-3.73-4.67l-.93,.93c-1.87,.93-3.73,2.8-6.53,3.73-1.87,.93-4.67,1.87-7.47,2.8-1.87,.93-4.67,.93-6.53,.93l.93,.93c0,.93,.93,2.8,.93,4.67h0Zm-68.13,1.87l.93-5.6,4.67-27.07,.93-5.6,5.6,.93,25.2,4.67,5.6,.93-.93,4.67-4.67,28.93c0,.93,0,1.87-.93,1.87,0,.93-.93,1.87-2.8,1.87h-5.6v-1.87c0-.93,0-1.87-.93-2.8v-1.87c.93,0,1.87,.93,2.8,.93h1.87q0-.93,.93-1.87l3.73-26.13-25.2-3.73-.93,5.6h.93c.93,0,1.87-.93,2.8-.93,.93,.93,1.87,1.87,1.87,3.73,.93-.93,.93-1.87,.93-2.8,0,0,0-.93,.93-1.87v-1.87c1.87,.93,2.8,1.87,5.6,1.87,0,.93-.93,.93-.93,1.87v.93l-.93,2.8c.93-.93,2.8-.93,2.8-1.86h.93c.93,.93,1.87,1.86,1.87,2.8,.93-1.86,.93-3.73,.93-4.67l.93-.93c1.86,.93,3.73,.93,5.6,1.87-.93,0-.93,.93-.93,.93l-.93,2.8c0,1.87-.93,2.8-.93,3.73l-1.87,2.8c1.87,3.73,2.8,6.53,2.8,6.53v.93c-.93,.93-2.8,1.87-4.67,3.73v-2.8l-.93-2.8c-1.87,2.8-3.73,4.67-3.73,4.67-.93,.93-1.87,1.87-2.8,1.87l-.93-.93c-.93-.93-1.87-.93-2.8-2.8,1.87-.93,2.8-1.87,3.73-2.8,.93-1.87,1.87-2.8,2.8-3.73l.93-1.86c0-1.87-.93-2.8-.93-3.73s-.93-1.87-1.87-3.73c-.93,1.87-1.86,2.8-1.86,3.73l-.93,.93c.93,1.87,1.86,4.67,2.8,6.53l-5.6,2.8v-3.73c-.93,.93-.93,1.87-1.87,1.87,0,.93-1.87,1.87-3.73,3.73,0,0,0-.93-.93-.93,0-.93-.93-1.87-1.87-2.8l-.93,5.6-.93,5.6-5.6-.93Zm7.47-11.2c1.87-.93,2.8-1.87,2.8-2.8,.93-.93,1.87-1.87,2.8-3.73-.93-2.8-1.87-4.67-1.87-5.6l-.93-1.87-2.8,14Zm-50.4-.93l9.33-1.86-.93-4.67-9.33,1.87,.93,4.67Zm-1.87-9.33l10.27-1.86-.93-5.6-10.27,1.87,.93,5.6Zm-12.13,12.13l8.4-1.87-.93-4.67-8.4,.93,.93,5.6Zm-9.33-19.6l4.67-.93,9.33-.93v-2.8l-.93-3.73,5.6-.93,.93,3.73v2.8l12.13-1.86,3.73-.93v3.73l2.8,17.73,.93,4.67-5.6,.93v-.93l-9.33,.93,.93,4.67v.93c0,.93,.93,.93,1.86,.93l5.6-.93c1.87,0,3.73-.93,3.73-.93,.93,0,1.87-.93,2.8-.93v-4.67c2.8,.93,4.67,1.87,6.53,1.87-.93,2.8-.93,5.6-1.87,5.6,0,.93-.93,1.87-1.87,1.87,0,.93-.93,.93-2.8,.93-.93,.93-3.73,.93-6.53,.93-2.8,.93-4.67,.93-6.53,.93-1.86,.93-2.8,.93-3.73,0-.93,0-1.87-.93-1.87-.93,0-.93-.93-1.87-.93-2.8l-.93-6.53-8.4,1.87-5.6,.93-.93-3.73-2.8-17.73-.93-3.73Zm7.47,9.33l8.4-.93-.93-5.6-8.4,1.87,.93,4.67Zm-66.26,25.2l-1.87-5.6,25.2-13.07,2.8,2.8,.93,1.87,5.6-2.8-1.87-1.87-1.87-4.67-1.87-2.8-3.73,2.8-12.13,5.6c.93,0,.93-.93,.93-.93-.93-.93-2.8-.93-5.6-1.86-.93,1.86-1.86,2.8-1.86,3.73l-.93,.93c.93,0,1.86,.93,2.8,.93l-10.27,5.6-4.67,1.87,.93,2.8,2.8,4.67,.93,1.86,3.73-1.86Zm14.93,12.13c-1.86,3.73-5.6,6.53-9.33,10.27l1.87,.93c.93,0,1.87,.93,2.8,1.87l4.67-4.67c.93-1.87,2.8-3.73,3.73-5.6,1.87-2.8,2.8-4.67,3.73-6.53l.93,.93v1.86c.93,.93,.93,1.87,0,1.87,0,.93-.93,1.87-3.73,2.8l1.87,.93c.93,0,1.87,.93,2.8,2.8,2.8-1.87,4.67-2.8,5.6-4.67v-3.73c-.93-.93-.93-1.86-1.87-3.73-.93-.93-1.87-2.8-1.87-2.8,0-.93-.93-.93-.93-1.87l.93-1.86c1.87,1.86,2.8,3.73,4.67,4.67,1.87,.93,2.8,1.87,4.67,1.87,1.87,.93,4.67,.93,8.4,1.87v-3.73c.93-.93,.93-1.87,.93-2.8h-7.47l-5.6-2.8-2.8-2.8,2.8-5.6c-1.87-.93-3.73-.93-3.73-.93-.93,0-1.87-.93-1.87-.93l-.93,2.8c-.93,.93-1.86,3.73-3.73,7.47l-.93-.93c-.93,0-1.87-.93-3.73-.93,.93-.93,1.87-2.8,2.8-4.67h-1.87l5.6-2.8,3.73-1.87-1.87-4.67-3.73,1.87-16.8,9.33-3.73,.93,2.8,4.67,2.8-1.87,5.6-2.8c-1.87,2.8-4.67,5.6-6.53,7.47-1.86,.93-3.73,2.8-4.67,2.8,1.87,.93,2.8,1.87,2.8,1.87l1.86,1.87,8.4-8.4-2.8,5.6-3.73,3.73c-.93,.93-2.8,1.87-3.73,2.8,1.86,.93,2.8,1.87,2.8,1.87l1.87,1.87c2.8-2.8,4.67-5.6,5.6-7.47,1.86-1.87,2.8-3.73,4.67-6.53l.93,.93c-.93,1.87-2.8,4.67-4.67,7.47h0Zm-49.46,47.6l18.67-19.6-21.47-21.47-18.67,19.6,21.46,21.47Zm-28.93-19.6l2.8-3.73,20.53-20.53,2.8-3.73,3.73,3.73,21.47,20.53,3.73,2.8-3.73,4.67v-.93l-19.6,19.6,.93,.93-3.73,3.73-3.73-3.73-22.4-20.53-2.8-2.8Zm23.33,14l3.73-2.8,3.73-4.67-4.67-3.73-5.6,5.6-3.73-2.8,2.8-2.8,3.73-3.73-3.73-2.8-3.73,3.73-2.8,3.73-3.73-3.73,14.93-14.93,2.8-3.73,3.73,2.8-2.8,2.8-4.67,5.6,3.73,2.8,3.73-3.73,1.87-2.8,3.73,3.73-2.8,1.87h5.6v3.73l2.8-2.8,2.8,2.8-2.8,2.8-12.13,13.06-2.8,2.8-3.73-2.8Zm14-14.93h-5.6c.93-.93,.93-1.87,.93-2.8l-2.8,1.87,4.67,4.67,2.8-3.73Zm334.11,117.59c-.93-.93,0-1.87,0-2.8,.93,0,2.8-.93,4.67-.93l12.13-2.8h4.67c.93,.93,1.87,.93,1.87,2.8l3.73-.93-1.86-14-4.67,.93c.93,.93,0,1.87,0,2.8-.93,0-2.8,.93-4.67,.93l-12.13,2.8h-4.67c-.93-.93-1.87-.93-1.87-2.8l-3.73,.93,2.8,14,3.73-.93Zm1.87,36.4c0-1.87,0-2.8,.93-2.8,.93-.93,1.87-.93,4.67-.93l12.13-.93h5.6c0,.93,.93,1.87,.93,2.8h3.73l-.93-14h-3.73c0,.93,0,1.87-.93,2.8-.93,0-1.87,.93-4.67,.93h-5.6l-.93-10.27,5.6-.93c2.8,0,4.67,0,4.67,.93,.93,0,1.87,.93,1.87,1.86h3.73l-.93-14h-4.67c.93,1.87,0,2.8,0,2.8h-5.6l-12.13,.93h-4.67q-.93-.93-.93-2.8h-4.67l.93,14.93,3.73-.93c0-.93,.93-1.87,1.87-2.8,1.87-.93,4.67-.93,7.47-.93l.93,11.2h-3.73c-1.87,0-3.73,0-4.67-.93-.93,0-.93-.93-.93-1.87h-3.73l.93,14h3.73v.93Zm-3.73,5.6c0,.93-.93,1.87-1.86,2.8v3.73c-.93,4.67,0,7.47,2.8,11.2,3.73,2.8,7.47,4.67,12.13,4.67,4.67,.93,9.33,0,12.13-2.8,3.73-2.8,5.6-5.6,5.6-10.27,.93-3.73,0-6.53-.93-8.4-1.86-2.8-3.73-4.67-7.47-6.53l-1.87,2.8c1.87,1.87,3.73,3.73,4.67,5.6,.93,1.87,1.87,2.8,1.87,4.67-.93,2.8-1.87,4.67-4.67,6.53-1.87,.93-4.67,.93-8.4,.93s-7.47-.93-9.33-2.8c-1.87-1.87-2.8-3.73-2.8-6.53,0-1.87,.93-2.8,2.8-4.67,1.87-1.87,3.73-2.8,6.53-3.73v-2.8l-12.13,2.8-.93,1.87,1.86,.93Zm-12.13,58.8c.93-.93,.93-1.87,1.86-1.87,.93-.93,2.8,0,4.67,.93l12.13,3.73,3.73,1.86c.93,.93,.93,1.87,.93,3.73l3.73,.93,4.67-14-3.73-.93-1.87,1.87c-.93,0-2.8,0-4.67-.93l-5.6-1.86,.93-.93c0-.93,.93-1.87,1.87-1.87,.93-.93,2.8-.93,4.67,0l.93-2.8-14.93-4.67-.93,1.86c1.87,.93,3.73,1.87,3.73,2.8,.93,.93,.93,1.87,0,3.73v.93l-4.67-1.87c-1.87,0-2.8-.93-2.8-1.87v-2.8c.93-1.87,1.87-3.73,3.73-4.67,1.87-1.87,3.73-2.8,6.53-2.8l-.93-2.8-9.33,.93-8.4,22.4,3.73,.93Zm-12.13,25.2c-1.87-3.73-1.87-8.4,.93-12.13,1.87-3.73,4.67-6.53,8.4-8.4,3.73-.93,8.4-.93,13.07,1.87,4.67,1.87,7.47,4.67,9.33,8.4,.93,3.73,.93,8.4-.93,12.13-1.87,4.67-4.67,7.47-9.33,8.4-3.73,.93-7.47,.93-12.13-.93-4.67-2.8-7.47-5.6-9.33-9.33h0Zm9.33-14c-2.8,0-3.73,1.87-5.6,3.73-.93,1.87,0,3.73,.93,6.53,1.87,1.87,3.73,3.73,7.47,5.6,3.73,1.87,7.47,1.87,9.33,1.87,2.8,0,4.67-.93,5.6-3.73,.93-1.86,.93-3.73-.93-6.53-.93-1.87-3.73-3.73-7.47-5.6-3.73-1.87-6.53-1.87-9.33-1.87h0Zm-38.26,48.53c.93-.93,1.87-.93,2.8-.93s1.87,.93,3.73,2.8l9.33,8.4c1.87,1.87,2.8,2.8,2.8,3.73s0,1.87-.93,2.8l2.8,2.8,7.47-8.4-2.8-1.87c-.93,.93-1.87,.93-2.8,.93s-1.87-.93-3.73-2.8l-11.2-10.27,27.06,6.53,3.73-3.73-15.87-14.93c-1.87-1.86-2.8-2.8-2.8-3.73-.93-.93,0-1.87,.93-2.8l-2.8-1.87-7.47,7.47,2.8,2.8c.93-.93,1.87-1.87,2.8-1.87,0,0,1.87,1.87,3.73,2.8l6.53,6.53-20.53-5.6-8.4,9.33,2.8,1.87Zm-20.53,19.6c0-4.67,1.87-8.4,5.6-11.2,3.73-2.8,7.47-3.73,12.13-2.8,3.73,0,7.47,2.8,11.2,6.53,2.8,3.73,4.67,7.47,3.73,12.13,0,3.73-1.86,7.47-5.6,10.27-3.73,2.8-7.47,3.73-12.13,3.73-3.73-.93-7.47-2.8-11.2-7.47-2.8-3.73-3.73-7.47-3.73-11.2h0Zm14.93-9.33c-2.8-.93-4.67-.93-6.53,.93-1.87,.93-2.8,2.8-1.87,5.6,0,2.8,1.87,5.6,3.73,8.4,2.8,2.8,5.6,5.6,7.47,6.53,2.8,.93,4.67,0,6.53-.93,1.87-1.87,2.8-3.73,1.87-6.53,0-1.87-.93-4.67-3.73-8.4-2.8-1.87-4.67-4.67-7.47-5.6h0Zm-57.86,39.2h2.8c0-2.8,0-4.67,.93-5.6,0-1.86,1.86-2.8,2.8-3.73h.93l8.4,14.93c.93,2.8,1.87,3.73,1.87,4.67-.93,.93-.93,1.87-2.8,2.8l1.87,2.8,13.07-6.53-1.87-2.8h-2.8c-.93-.93-1.87-1.87-2.8-3.73l-8.4-15.87c1.87-.93,3.73-1.87,5.6-.93,.93,0,2.8,.93,5.6,2.8l1.86-2.8-8.4-6.53-20.53,11.2,1.87,9.33Zm-16.8-4.67l6.53-1.86,15.86,18.67c1.87,1.87,3.73,2.8,5.6,2.8l.93,3.73-13.07,4.67-.93-3.73c.93,0,1.87-.93,1.87-.93v-1.87q0-.93-.93-.93l-2.8-3.73-8.4,3.73,.93,3.73v.93c0,.93,.93,1.87,.93,1.87h2.8l1.87,2.8-11.2,4.67-1.87-3.73c1.87-.93,2.8-2.8,2.8-6.53l-.93-24.27Zm4.67,6.53v9.33l5.6-1.87-5.6-7.47Zm-45.73,1.87l16.8-1.87c3.73-.93,7.47-.93,9.33,0,1.87,1.87,3.73,3.73,3.73,6.53,.93,1.87,0,3.73-.93,5.6-.93,.93-1.87,2.8-4.67,3.73l7.47,6.53c.93,.93,1.86,1.86,2.8,1.86s1.87,.93,2.8,0v3.73l-8.4,1.87-12.13-12.13-2.8,.93,.93,3.73c0,1.86,.93,3.73,1.87,4.67,0,0,.93,.93,2.8,0v4.67l-14,1.86-.93-3.73c1.87,0,2.8-.93,2.8-1.87,.93,0,.93-1.87,0-4.67l-1.87-12.13c0-1.87-.93-3.73-1.87-4.67,0,0-.93-.93-2.8,0l-.93-4.67Zm14,12.13h.93c2.8-.93,4.67-.93,6.53-1.86,.93-1.87,.93-2.8,.93-4.67,0-.93-.93-2.8-1.87-2.8-1.87-.93-2.8-.93-5.6-.93-.93,0-1.86,.93-1.86,.93-.93,.93-.93,1.87,0,3.73l.93,5.6Zm-40.13-6.53c2.8-2.8,6.53-4.67,11.2-4.67s8.4,.93,11.2,3.73c2.8,2.8,4.67,7.47,4.67,12.13s-.93,9.33-3.73,12.13c-2.8,2.8-6.53,4.67-11.2,4.67s-8.4-.93-11.2-3.73c-3.73-2.8-4.67-7.47-4.67-12.13-.93-4.67,.93-9.33,3.73-12.13h0Zm16.8,1.87c-1.87-1.87-3.73-2.8-5.6-2.8-2.8,0-4.67,.93-5.6,3.73-.93,1.87-1.87,5.6-1.87,9.33s.93,6.53,2.8,9.33c.93,1.87,2.8,2.8,5.6,2.8,1.87,0,3.73-.93,5.6-3.73,.93-1.87,1.86-5.6,.93-9.33,0-3.73-.93-6.53-1.87-9.33h0Zm-46.67-9.33l15.87,1.87c3.73,0,5.6,1.86,7.47,3.73s2.8,3.73,1.87,7.47c0,2.8-.93,4.67-3.73,5.6-1.87,1.87-4.67,1.87-7.47,1.87l-5.6-.93v8.4c0,.93,.93,.93,2.8,.93l-.93,3.73-14-.93,.93-4.67c.93,.93,1.87,0,2.8,0,0-.93,.93-2.8,.93-4.67l1.87-12.13v-5.6c-.93,0-1.87-.93-2.8-.93v-3.73Zm9.33,15.86h.93c2.8,.93,4.67,0,5.6-.93,.93,0,1.87-1.87,1.87-3.73s0-2.8-.93-3.73c-.93-.93-1.87-1.87-3.73-1.87h-1.87c-.93,.93-.93,1.87-.93,3.73l-.93,6.53Zm-39.2-25.2l15.87,4.67c3.73,.93,6.53,2.8,7.47,4.67,1.87,1.87,1.87,3.73,1.87,6.53-.93,2.8-1.87,3.73-3.73,4.67-.93,.93-2.8,1.86-5.6,1.86l3.73,9.34c0,.93,0,1.86,.93,2.8,.93,0,1.87,.93,2.8,.93l-1.87,3.73-8.4-2.8-4.67-14.93-2.8-.93-1.87,3.73c0,1.87-.93,3.73,0,4.67,0,.93,.93,.93,1.87,1.87l-.93,3.73-14-4.67,.93-3.73c1.87,.93,2.8,.93,3.73,0l1.87-3.73,3.73-12.13c0-2.8,.93-3.73,0-4.67,0-.93-.93-1.87-1.86-1.87l.93-3.73Zm6.53,15.86l.93,.93h.93c2.8,.93,4.67,.93,5.6,0,1.87,0,2.8-.93,3.73-2.8,0-.93,0-2.8-.93-3.73-.93-.93-1.87-1.87-3.73-2.8h-2.8c-.93,.93-1.86,1.87-1.86,2.8l-1.87,5.6Zm-32.66-23.33c3.73-1.86,8.4-.93,12.13,.93,4.67,1.87,7.47,4.67,8.4,9.33,.93,3.73,.93,7.47-1.87,12.13-1.87,4.67-5.6,7.47-9.33,9.33-3.73,.93-7.47,.93-12.13-.93-3.73-2.8-6.53-5.6-8.4-9.33-.93-4.67,0-8.4,1.87-13.06,2.8-4.67,5.6-7.47,9.33-8.4h0Zm14,9.33c0-1.86-.93-3.73-3.73-4.67-1.87-1.87-3.73-.93-6.53,0-1.87,1.87-3.73,3.73-5.6,7.47-1.87,3.73-2.8,6.53-2.8,9.33,.93,2.8,1.87,3.73,3.73,5.6,1.87,.93,4.67,.93,6.53-.93,1.87-.93,4.67-3.73,5.6-7.47,1.87-3.73,2.8-6.53,2.8-9.34h0Zm-23.33-16.8c0-1.87-.93-2.8-.93-3.73-.93-.93-1.87-1.87-2.8-1.87-3.73-2.8-7.47-3.73-11.2-2.8-4.67,0-7.47,2.8-11.2,6.53-2.8,3.73-3.73,8.4-3.73,12.13s2.8,7.47,5.6,10.27c2.8,1.87,5.6,2.8,8.4,2.8,2.8,.93,6.53,0,9.33-1.87l-1.87-3.73c-1.87,.93-3.73,1.87-6.53,1.87-1.87,0-3.73-.93-5.6-1.87-1.87-1.86-2.8-3.73-2.8-6.53s1.87-5.6,3.73-8.4c2.8-2.8,4.67-4.67,7.47-5.6,2.8-.93,4.67-.93,6.53,.93,1.86,.93,2.8,2.8,2.8,4.67,0,2.8,0,4.67-.93,7.47l3.73,.93,3.73-11.2-1.87-1.87-1.87,1.87Zm-46.66-44.8l9.33,11.2c3.73,3.73,4.67,8.4,4.67,12.13-.93,3.73-2.8,7.47-6.53,10.27-4.67,4.67-8.4,5.6-12.13,5.6-3.73-.93-7.47-2.8-11.2-7.47l-8.4-11.2,2.8-1.87c.93,.93,1.87,.93,2.8,.93l3.73-1.87,9.33-8.4c2.8-.93,3.73-2.8,3.73-3.73,0,0,0-.93-.93-1.87l2.8-3.73Zm-11.2,23.33c-1.87,.93-2.8,1.87-2.8,2.8,0,0,0,.93,.93,1.87,1.87,1.87,4.67,3.73,6.53,3.73,2.8-.93,5.6-1.86,8.4-3.73,3.73-2.8,5.6-5.6,5.6-7.47,.93-2.8,0-5.6-1.87-7.47,0-.93-.93-.93-1.87-.93,0,0-.93,0-2.8,.93l-12.13,10.27Zm-1.87-34.53c.93,.93,.93,1.87,.93,2.8l-3.73,3.73-10.27,7.47c-1.87,.93-3.73,1.87-4.67,1.87l-1.87-1.87-3.73,2.8,8.4,11.2,3.73-1.87c-.93-1.87-.93-2.8-.93-2.8,0-.93,1.87-2.8,3.73-3.73l10.27-7.47c1.87-.93,2.8-1.87,3.73-1.87s1.87,.93,2.8,1.87l2.8-2.8-8.4-11.2-2.8,1.87Zm-12.13-29.86l7.47,14.93c1.87,3.73,2.8,6.53,2.8,8.4,0,2.8-1.87,4.67-4.67,5.6-1.87,.93-3.73,1.87-5.6,.93-1.87,0-2.8-.93-4.67-2.8l-4.67,9.33c0,.93-.93,1.87-.93,2.8s0,1.87,.93,2.8l-3.73,1.86-3.73-8.4,7.47-14-1.87-2.8-2.8,1.87c-2.8,.93-3.73,1.87-4.67,2.8,0,.93,0,1.87,.93,2.8l-3.73,1.87-6.53-12.13,2.8-1.87c.93,.93,1.86,1.87,2.8,1.87s1.87-.93,4.67-1.87l10.27-5.6c2.8-1.87,3.73-2.8,4.67-2.8,0-.93,0-1.87-.93-3.73l3.73-1.87Zm-7.47,16.8h.93v.93c1.87,2.8,2.8,3.73,4.67,4.67,.93,.93,2.8,.93,3.73,0,1.87-.93,1.87-1.87,2.8-2.8,0-1.87,0-2.8-.93-4.67-.93-.93-1.87-1.87-2.8-1.87,0,0-.93,0-2.8,.93l-5.6,2.8Zm2.8-24.26v-3.73c0-.93-.93-1.87-.93-2.8-1.87-4.67-4.67-6.53-8.4-8.4-3.73-1.87-7.47-.93-12.13,0-4.67,1.87-8.4,4.67-10.27,8.4-1.87,2.8-2.8,6.53-.93,10.27,0,1.87,.93,2.8,1.87,3.73s2.8,1.87,3.73,2.8l-1.86,1.87,1.86,4.67,7.47-3.73h3.73c.93,0,.93,.93,1.87,1.87l3.73-1.87-4.67-12.13-3.73,1.87c.93,.93,.93,1.87,0,2.8,0,0-.93,.93-1.86,.93-1.87,.93-2.8,.93-4.67,0-.93,0-1.87-1.87-2.8-2.8-.93-2.8,0-4.67,.93-6.53,1.87-1.87,4.67-2.8,8.4-4.67,3.73-.93,6.53-1.87,9.33-.93,1.87,0,3.73,.93,4.67,2.8v5.6c-.93,1.86-2.8,3.73-4.67,5.6l2.8,2.8,8.4-6.53-.93-1.86h-.93Zm281.85,96.13c.93-.93,1.87-.93,2.8-.93l3.73,3.73,6.53,10.27c.93,2.8,1.87,3.73,1.87,4.67s-.93,1.87-1.87,2.8l1.87,2.8,12.13-7.47-1.87-3.73c-.93,.93-1.87,.93-2.8,.93s-1.87-1.87-2.8-3.73l-6.53-10.27c-1.87-1.87-2.8-3.73-2.8-4.67,.93-.93,.93-1.87,1.87-1.87l-1.87-3.73-12.13,7.47,1.86,3.73Zm62.53-164.26c0,77.46-55.06,141.86-127.86,158.66-24.27-8.4-45.73-28.93-62.53-56h14.93c72.79,0,135.32-24.27,158.66-57.86-32.66,26.13-84.93,43.86-144.66,43.86-13.06,0-25.2-.93-38.26-2.8-3.73-8.4-6.53-16.8-9.33-25.2,16.8,2.8,35.47,3.73,54.13,2.8,71.86-2.8,132.52-29.86,153.99-64.4q.93,0,.93,.93h0Zm-157.72,162.39h-6.53c-68.13,0-126.93-41.06-152.12-100.79,14.93,12.13,34.53,22.4,58.8,29.87,11.2,25.2,26.13,43.86,43.86,55.06-13.07-14-23.33-30.8-31.73-51.33,10.27,2.8,20.53,4.67,30.8,5.6,14,30.8,33.6,53.2,56.93,61.6h0ZM110.44,302.73c-.93-6.53-.93-14-.93-21.47,0-68.13,42-125.99,101.73-150.26-29.86,28-50.4,82.13-50.4,143.72,0,14,.93,27.06,2.8,40.13-14.93-5.6-28-13.07-39.2-22.4,9.34,12.13,23.33,23.33,41.06,31.73,1.87,8.4,3.73,17.73,6.53,25.2-28-11.2-49.46-27.07-61.6-46.67h0ZM267.23,118.87h5.6c79.33,0,146.52,56.93,161.45,131.59-21.46,43.86-86.79,78.4-165.19,80.26-14.93,.93-29.86,0-43.86-.93-4.67-18.67-6.53-38.27-6.53-58.8,0-56.93,18.67-109.19,47.6-139.99-36.4,22.4-62.53,83.06-62.53,153.06,0,14.93,.93,28.93,3.73,42.93-10.27-1.87-20.53-4.67-29.86-7.47-.93-10.27-1.87-21.47-1.87-31.73,0-82.13,38.26-150.26,91.46-168.92h0Zm-51.33,245.45c-2.8-8.4-4.67-16.8-6.53-25.2-11.2-2.8-20.53-5.6-29.86-9.33l5.6,25.2c9.33,3.73,19.6,7.47,30.8,9.33h0Zm0,0" fill="#fff"/>
    </g>
    <path d="M451.08,282.19c0,48.53-20.53,93.33-52.26,125.06-32.66,31.73-77.46,52.26-125.99,52.26s-94.26-19.6-125.99-51.33c-32.66-33.6-52.26-77.46-52.26-125.99s19.6-93.33,52.26-125.06c32.67-31.73,76.53-51.33,125.99-51.33s93.33,19.6,125.99,52.26c32.66,30.8,52.26,74.66,52.26,124.12h0Zm-4.67,0c0-47.6-19.6-90.53-51.33-121.33-30.8-32.66-74.66-51.33-122.26-51.33s-91.46,19.6-123.19,50.4c-31.73,30.8-50.4,74.66-50.4,122.26s19.6,90.53,50.4,122.26c31.73,30.8,74.66,50.4,123.19,50.4s91.46-19.6,123.19-50.4c30.8-31.73,50.4-74.66,50.4-122.26h0Zm0,0" fill="#fff"/>
  </g>
</svg>